<svg width="37" height="40" viewBox="0 0 37 40" fill="none" xmlns="http://www.w3.org/2000/svg">
<g id="logo-pco">
<path d="M18.8407 0.00315343C9.09066 -0.176667 1.11159 7.35696 0.942716 16.7367H0.938232V38.9982C0.938232 39.5507 1.40003 40.0003 1.97092 40.0003H10.5523C11.1217 40.0003 11.585 39.5522 11.585 38.9982V33.3846C11.585 33.0641 11.9152 32.8451 12.2246 32.9597C14.1734 33.6833 16.2896 34.0807 18.5015 34.0807C28.2844 34.0807 36.1992 26.3179 36.0602 16.7932C35.9257 7.64989 28.262 0.177174 18.8407 0.00315343Z" fill="#D70079"/>
<path d="M6.21975 27.4578C5.98362 27.2098 5.86556 26.8792 5.86556 26.4644C5.86556 26.0497 5.98661 25.7219 6.22872 25.4725C6.47083 25.2231 6.79513 25.0969 7.20163 25.0969C7.51697 25.0969 7.78149 25.181 7.99371 25.3521C8.20592 25.5232 8.33595 25.7495 8.38078 26.0352H7.91151C7.81885 25.6915 7.55433 25.4855 7.1837 25.4855C6.92216 25.4855 6.71592 25.5755 6.56348 25.7553C6.40955 25.9365 6.33184 26.1729 6.33184 26.4644C6.33184 26.7559 6.40656 26.9894 6.56049 27.1706C6.71144 27.3519 6.91618 27.4418 7.17323 27.4418C7.55433 27.4418 7.82184 27.2388 7.90852 26.8951H8.37779C8.33296 27.1779 8.20443 27.4056 7.98624 27.5752C7.76804 27.7464 7.49903 27.8305 7.17622 27.8305C6.77421 27.8305 6.45588 27.7072 6.21975 27.4578Z" fill="white"/>
<path d="M9.62718 27.8319C9.31783 27.8319 9.06824 27.7406 8.87994 27.5549C8.69014 27.3708 8.59599 27.13 8.59599 26.827C8.59599 26.5239 8.69014 26.2831 8.88143 26.0975C9.07123 25.9119 9.31932 25.8205 9.62718 25.8205C9.93505 25.8205 10.1831 25.9148 10.3744 26.1004C10.5657 26.286 10.6599 26.5297 10.6599 26.8284C10.6599 27.1271 10.5657 27.3722 10.3759 27.5564C10.1846 27.742 9.93505 27.8334 9.62569 27.8334L9.62718 27.8319ZM9.62718 27.4795C9.80503 27.4795 9.94999 27.4172 10.0606 27.2954C10.1712 27.1735 10.225 27.0184 10.225 26.827C10.225 26.6355 10.1712 26.4789 10.0606 26.3571C9.94999 26.2353 9.80503 26.1758 9.62718 26.1758C9.44934 26.1758 9.30587 26.2353 9.19827 26.3571C9.08767 26.4789 9.03387 26.6341 9.03387 26.827C9.03387 27.0198 9.08767 27.175 9.19827 27.2968C9.30587 27.4186 9.44934 27.4781 9.62718 27.4781V27.4795Z" fill="white"/>
<path d="M10.9647 27.8087V25.1201H11.3922V27.8087H10.9647Z" fill="white"/>
<path d="M12.7268 27.8319C12.4174 27.8319 12.1678 27.7406 11.9795 27.5549C11.7897 27.3708 11.6956 27.13 11.6956 26.827C11.6956 26.5239 11.7897 26.2831 11.981 26.0975C12.1708 25.9119 12.4189 25.8205 12.7268 25.8205C13.0346 25.8205 13.2827 25.9148 13.474 26.1004C13.6653 26.286 13.7594 26.5297 13.7594 26.8284C13.7594 27.1271 13.6653 27.3722 13.4755 27.5564C13.2842 27.742 13.0346 27.8334 12.7253 27.8334L12.7268 27.8319ZM12.7268 27.4795C12.9046 27.4795 13.0496 27.4172 13.1602 27.2954C13.2707 27.1735 13.3245 27.0184 13.3245 26.827C13.3245 26.6355 13.2707 26.4789 13.1602 26.3571C13.0496 26.2353 12.9046 26.1758 12.7268 26.1758C12.5489 26.1758 12.4054 26.2353 12.2978 26.3571C12.1872 26.4789 12.1334 26.6341 12.1334 26.827C12.1334 27.0198 12.1872 27.175 12.2978 27.2968C12.4054 27.4186 12.5489 27.4781 12.7268 27.4781V27.4795Z" fill="white"/>
<path d="M17.1534 26.6761V27.8087H16.726V26.7022C16.726 26.3571 16.5795 26.1773 16.3031 26.1773C16.1566 26.1773 16.04 26.228 15.9533 26.3295C15.8667 26.4311 15.8233 26.5688 15.8233 26.7457V27.8087H15.3929V26.7022C15.3929 26.3571 15.2435 26.1773 14.964 26.1773C14.819 26.1773 14.7025 26.2295 14.6188 26.3353C14.5336 26.4398 14.4917 26.5804 14.4917 26.7573V27.8087H14.0643V25.8423H14.4349L14.4828 26.1004C14.6277 25.9148 14.825 25.8205 15.0761 25.8191C15.3541 25.8191 15.5842 25.9351 15.7008 26.1773C15.8383 25.9525 16.0714 25.8191 16.3942 25.8191C16.8142 25.8191 17.1534 26.054 17.1534 26.6761Z" fill="white"/>
<path d="M19.2771 26.0903C19.4534 26.2701 19.5416 26.5152 19.5416 26.827C19.5416 27.1387 19.4534 27.3693 19.2726 27.5549C19.0918 27.7406 18.8646 27.8319 18.5851 27.8319C18.3057 27.8319 18.0725 27.729 17.9246 27.5245L17.8723 27.8087H17.5016V25.1201H17.9291V26.1338C18.089 25.9235 18.3102 25.8191 18.5851 25.8191C18.8601 25.8191 19.0992 25.909 19.2771 26.0888V26.0903ZM18.9453 27.3012C19.0529 27.1793 19.1082 27.0213 19.1082 26.827C19.1082 26.6326 19.0544 26.4789 18.9438 26.3571C18.8332 26.2353 18.6912 26.1758 18.5149 26.1758C18.3385 26.1758 18.1966 26.2353 18.0875 26.3556C17.9799 26.4775 17.9246 26.6326 17.9246 26.824C17.9246 27.0155 17.9784 27.1779 18.0875 27.2997C18.1951 27.4215 18.3385 27.4839 18.5149 27.4839C18.6912 27.4839 18.8362 27.4244 18.9453 27.3026V27.3012Z" fill="white"/>
<path d="M20.0632 25.5668C19.9885 25.5668 19.9257 25.5421 19.8779 25.4957C19.8271 25.4493 19.8032 25.3913 19.8032 25.3173C19.8032 25.2434 19.8286 25.1839 19.8779 25.1375C19.9257 25.0911 19.9885 25.0679 20.0632 25.0679C20.1379 25.0679 20.2007 25.0911 20.25 25.1375C20.2978 25.1839 20.3232 25.2448 20.3232 25.3173C20.3232 25.3898 20.2978 25.4478 20.25 25.4957C20.1992 25.5421 20.1379 25.5668 20.0632 25.5668ZM19.8465 27.8087V25.8423H20.2739V27.8087H19.8465Z" fill="white"/>
<path d="M22.5904 27.4476V27.8087H22.3647C22.1002 27.8087 21.9941 27.6985 21.9941 27.494C21.8416 27.7188 21.6175 27.8319 21.326 27.8319C21.1004 27.8319 20.918 27.7812 20.7805 27.6782C20.6431 27.5767 20.5743 27.436 20.5743 27.2562C20.5743 26.8516 20.8762 26.6268 21.4396 26.6268H21.9492V26.5094C21.9492 26.2904 21.7848 26.1555 21.5069 26.1555C21.2573 26.1555 21.0824 26.2701 21.051 26.4441H20.6326C20.6535 26.2512 20.7447 26.099 20.9046 25.9888C21.0645 25.8785 21.2722 25.822 21.5263 25.822C22.0673 25.822 22.3722 26.0729 22.3722 26.5355V27.3229C22.3722 27.4186 22.411 27.4491 22.5037 27.4491H22.5904V27.4476ZM21.4202 26.9343C21.1452 26.9343 21.0092 27.0343 21.0092 27.2301C21.0092 27.3969 21.1527 27.51 21.3843 27.51C21.5607 27.51 21.6967 27.4636 21.7983 27.3708C21.8969 27.2794 21.9492 27.1576 21.9507 27.0039V26.9343H21.4202Z" fill="white"/>
<path d="M13.4546 22.1168C13.4546 22.7955 13.211 23.1276 12.6416 23.1276C12.0722 23.1276 11.8286 22.7955 11.8286 22.1168V19.9474H10.6823V22.1168C10.6823 23.5525 11.4789 24.0426 12.6416 24.0426C13.8043 24.0426 14.6008 23.5539 14.6008 22.1168V19.9474H13.4546V22.1168Z" fill="white"/>
<path d="M8.0221 18.4783H5.86705V24.002H7.08655V22.3053H8.0221C9.30736 22.3053 10.1532 21.5556 10.1532 20.3955C10.1532 19.2353 9.30736 18.4783 8.0221 18.4783ZM7.90852 21.3192H7.08655V19.4644H7.90852C8.52724 19.4644 8.92477 19.8197 8.92477 20.3955C8.92477 20.9712 8.52575 21.3192 7.90852 21.3192Z" fill="white"/>
<path d="M17.545 19.8995C16.9023 19.8995 16.5183 20.1388 16.2522 20.4564L16.1461 19.9473H15.1463V24.0035H16.2926V21.9283C16.2926 21.2264 16.6348 20.816 17.2281 20.816C17.8215 20.816 18.074 21.1785 18.074 21.8659V24.0049H19.2203V21.7557C19.2203 20.3664 18.4476 19.9009 17.545 19.9009V19.8995Z" fill="white"/>
<path d="M21.2692 22.6606V20.8856H22.2287V19.9459H21.2692V18.809H20.123V19.9459H19.431V20.8856H20.123V22.8433C20.123 23.6163 20.522 24.0035 21.3186 24.0035H22.2541V23.0638H21.6847C21.3843 23.0638 21.2692 22.9448 21.2692 22.6606Z" fill="white"/>
<path d="M29.2229 21.5092C28.6206 21.4381 28.2634 21.4062 28.2634 21.0988C28.2634 20.8378 28.5564 20.6811 29.0032 20.6811C29.4501 20.6811 29.7833 20.8784 29.8162 21.2017H30.9147C30.8579 20.3737 30.0852 19.8922 28.9629 19.8922C27.8898 19.885 27.165 20.4129 27.165 21.2177C27.165 22.0225 27.9212 22.2676 28.8971 22.3778C29.5726 22.4648 29.8566 22.488 29.8566 22.8201C29.8566 23.1044 29.5636 23.2537 29.0839 23.2537C28.5235 23.2537 28.2052 23.0087 28.1648 22.6534H27.0753C27.1246 23.522 27.9122 24.0499 29.0764 24.0499C30.2407 24.0499 30.9789 23.5365 30.9789 22.7317C30.9789 21.8166 30.1824 21.6034 29.2229 21.5092Z" fill="white"/>
<path d="M24.6408 24.0789C23.9713 24.0789 23.4362 23.8889 23.0327 23.5061C22.6292 23.1261 22.426 22.6229 22.426 21.9964C22.426 21.37 22.6292 20.8668 23.0327 20.4825C23.4362 20.0996 23.9698 19.9096 24.6408 19.9096C25.3118 19.9096 25.8498 20.0996 26.2519 20.4825C26.6554 20.8653 26.8541 21.3685 26.8541 21.9964C26.8541 22.6244 26.6539 23.1305 26.2519 23.5104C25.8484 23.8904 25.3103 24.0789 24.6408 24.0789ZM24.6408 23.1696C24.9606 23.1696 25.2147 23.0609 25.406 22.8448C25.5928 22.6287 25.6899 22.3459 25.6899 21.9979C25.6899 21.6498 25.5943 21.3671 25.406 21.151C25.2147 20.9349 24.9591 20.8262 24.6408 20.8262C24.3225 20.8262 24.0699 20.9349 23.8831 21.151C23.6963 21.3671 23.6036 21.6498 23.6036 21.9979C23.6036 22.3459 23.6948 22.6287 23.8831 22.8448C24.0699 23.0609 24.3225 23.1696 24.6408 23.1696Z" fill="white"/>
<path d="M6.63671 13.4941C6.71144 14.4585 7.48259 15.0951 8.61392 15.0951C9.60776 15.0951 10.3161 14.6542 10.3161 13.874C10.3161 12.9822 9.40749 12.7966 8.28663 12.6124C7.09253 12.4181 5.86556 12.0381 5.86556 10.6431C5.86556 9.42202 6.89078 8.60123 8.39274 8.60123C10.0427 8.60123 11.0574 9.49308 11.1411 10.7866H10.1891C10.083 9.95568 9.39554 9.41187 8.39124 9.41187C7.38695 9.41187 6.78467 9.82227 6.78467 10.5923C6.78467 11.4537 7.68286 11.6277 8.79326 11.8134C9.99782 12.0077 11.2353 12.3978 11.2353 13.7928C11.2353 15.0342 10.1562 15.9057 8.60346 15.9057C6.79513 15.9057 5.73853 14.9109 5.68622 13.4955H6.63821L6.63671 13.4941Z" fill="white"/>
<path d="M12.7148 13.2273C12.7148 11.6379 13.8147 10.5503 15.3899 10.5503C16.9651 10.5503 18.0651 11.6379 18.0651 13.2273C18.0651 14.8167 16.9651 15.9043 15.3899 15.9043C13.8147 15.9043 12.7148 14.8167 12.7148 13.2273ZM17.1758 13.2273C17.1758 12.1092 16.457 11.2985 15.3884 11.2985C14.3199 11.2985 13.601 12.1092 13.601 13.2273C13.601 14.3453 14.3199 15.156 15.3884 15.156C16.457 15.156 17.1758 14.3453 17.1758 13.2273Z" fill="white"/>
<path d="M19.6926 8.66214H20.5594V15.8434H19.6926V8.66214Z" fill="white"/>
<path d="M22.1869 13.2273C22.1869 11.6379 23.2868 10.5503 24.862 10.5503C26.4372 10.5503 27.5371 11.6379 27.5371 13.2273C27.5371 14.8167 26.4372 15.9043 24.862 15.9043C23.2868 15.9043 22.1869 14.8167 22.1869 13.2273ZM26.6479 13.2273C26.6479 12.1092 25.9291 11.2985 24.862 11.2985C23.7949 11.2985 23.0746 12.1092 23.0746 13.2273C23.0746 14.3453 23.7934 15.156 24.862 15.156C25.9305 15.156 26.6479 14.3453 26.6479 13.2273Z" fill="white"/>
</g>
</svg>
